<svg width="12" height="12" viewBox="0 0 12 12" fill="none" xmlns="http://www.w3.org/2000/svg">
<path d="M10.3638 9.9812H1.04089C0.57475 9.9812 0.193359 10.3626 0.193359 10.8287C0.193359 11.2949 0.57475 11.6763 1.04089 11.6763H10.3638C10.8299 11.6763 11.2113 11.2949 11.2113 10.8287C11.2113 10.3626 10.8299 9.9812 10.3638 9.9812Z" fill="white"/>
<path d="M3.11779 5.4892H3.79582V7.35377C3.79582 7.77754 4.13483 8.11656 4.5586 8.11656H6.80456C7.22833 8.11656 7.56734 7.77754 7.56734 7.35377V5.4892H8.28775C8.96577 5.4892 9.34717 4.68404 8.9234 4.17552L6.33842 0.997269C5.9994 0.573502 5.40613 0.573502 5.06712 0.997269L2.48214 4.17552C2.05837 4.68404 2.43976 5.4892 3.11779 5.4892Z" fill="white"/>
</svg>
