<svg width="26" height="26" viewBox="0 0 26 26" fill="none" xmlns="http://www.w3.org/2000/svg">
<path d="M12.7791 25.4919C19.6826 25.4919 25.2791 19.8955 25.2791 12.9919C25.2791 6.08838 19.6826 0.491943 12.7791 0.491943C5.87549 0.491943 0.279053 6.08838 0.279053 12.9919C0.279053 19.8955 5.87549 25.4919 12.7791 25.4919Z" fill="#2E79CC"/>
<path d="M16.0191 14.7294C16.0191 13.0194 14.9991 12.4282 12.9516 12.1907C11.4941 11.9907 11.2016 11.6082 11.2016 10.9169C11.2016 10.2257 11.6929 9.79191 12.6666 9.79191C13.0143 9.7375 13.3698 9.81205 13.6663 10.0015C13.9629 10.191 14.1799 10.4823 14.2766 10.8207C14.302 10.8926 14.3488 10.9551 14.4107 10.9998C14.4725 11.0444 14.5466 11.0692 14.6229 11.0707H15.3891C15.4773 11.071 15.5622 11.0368 15.6255 10.9754C15.6888 10.9139 15.7256 10.8301 15.7279 10.7419V10.7194C15.6344 10.1906 15.3685 9.70753 14.9717 9.34572C14.5748 8.98391 14.0693 8.76368 13.5341 8.71941V7.50441C13.5341 7.31191 13.3891 7.16691 13.1441 7.11316H12.3766C12.1854 7.11316 12.0391 7.25816 11.9929 7.50441V8.62941C11.3669 8.65371 10.7732 8.91291 10.3298 9.35536C9.8864 9.79781 9.62597 10.3911 9.60035 11.0169C9.60035 12.6282 10.5741 13.2669 12.6216 13.5094C13.9866 13.7469 14.4316 14.0469 14.4316 14.8207C14.4316 15.5944 13.7491 16.1407 12.8216 16.1407C11.5479 16.1407 11.1116 15.6032 10.9654 14.8744C10.9508 14.7933 10.9083 14.7198 10.8454 14.6666C10.7824 14.6134 10.7028 14.5839 10.6204 14.5832H9.82285C9.77951 14.5822 9.7364 14.5897 9.69598 14.6054C9.65556 14.6211 9.61863 14.6445 9.58729 14.6745C9.55594 14.7044 9.53081 14.7403 9.51332 14.7799C9.49583 14.8196 9.48633 14.8623 9.48535 14.9057V14.9669C9.5732 15.6016 9.88209 16.185 10.3577 16.6143C10.8332 17.0437 11.445 17.2916 12.0854 17.3144V18.4919C12.0854 18.6844 12.2304 18.8294 12.4766 18.8757H13.2429C13.3437 18.8704 13.4391 18.8285 13.5111 18.7578C13.5832 18.6872 13.6269 18.5926 13.6341 18.4919V17.3194C14.2864 17.2613 14.8948 16.9662 15.3442 16.4898C15.7936 16.0135 16.0528 15.389 16.0729 14.7344L16.0191 14.7294Z" fill="white"/>
<path d="M10.2926 19.8219C8.87976 19.3123 7.65844 18.3793 6.79517 17.1503C5.9319 15.9212 5.46869 14.4558 5.46869 12.9538C5.46869 11.4518 5.9319 9.98641 6.79517 8.75732C7.65844 7.52823 8.87976 6.59528 10.2926 6.08566C10.3855 6.04331 10.4632 5.97353 10.5153 5.88571C10.5673 5.79789 10.5913 5.69624 10.5839 5.59441V4.93441C10.5878 4.84664 10.5608 4.76026 10.5076 4.69035C10.4544 4.62044 10.3783 4.57145 10.2926 4.55191C10.2219 4.54368 10.1508 4.56292 10.0939 4.60566C8.3183 5.1709 6.76856 6.28629 5.66881 7.79051C4.56906 9.29473 3.97632 11.1098 3.97632 12.9732C3.97632 14.8365 4.56906 16.6516 5.66881 18.1558C6.76856 19.66 8.3183 20.7754 10.0939 21.3407C10.1622 21.3807 10.2436 21.3921 10.3202 21.3721C10.3969 21.3522 10.4625 21.3027 10.5026 21.2344C10.5198 21.2054 10.5321 21.1737 10.5389 21.1407C10.5839 21.0957 10.5839 21.0494 10.5839 20.9494V20.2669C10.5703 20.1761 10.5372 20.0893 10.487 20.0125C10.4367 19.9357 10.3704 19.8707 10.2926 19.8219ZM15.4626 4.59691C15.3963 4.55688 15.3168 4.5448 15.2416 4.56331C15.1663 4.58182 15.1015 4.62942 15.0614 4.69566C15.0437 4.72443 15.0314 4.75621 15.0251 4.78941C14.9789 4.84316 14.9789 4.88941 14.9789 4.98816V5.67066C14.9872 5.7682 15.0178 5.86253 15.0683 5.94639C15.1188 6.03026 15.1878 6.10142 15.2701 6.15441C16.6754 6.66847 17.8888 7.60188 18.7461 8.82831C19.6033 10.0547 20.0631 11.5149 20.0631 13.0113C20.0631 14.5076 19.6033 15.9678 18.7461 17.1943C17.8888 18.4207 16.6754 19.3541 15.2701 19.8682C15.1764 19.9095 15.098 19.979 15.0458 20.0671C14.9936 20.1552 14.9702 20.2574 14.9789 20.3594V21.0419C14.9728 21.1311 14.9988 21.2196 15.0522 21.2914C15.1056 21.3631 15.1829 21.4134 15.2701 21.4332C15.3387 21.4397 15.4073 21.4205 15.4626 21.3794C17.2394 20.8085 18.7891 19.6884 19.8885 18.1804C20.9879 16.6724 21.5802 14.8544 21.5802 12.9882C21.5802 11.1219 20.9879 9.3039 19.8885 7.7959C18.7891 6.2879 17.2394 5.16779 15.4626 4.59691Z" fill="white"/>
</svg>
