<svg width="26" height="26" viewBox="0 0 26 26" fill="none" xmlns="http://www.w3.org/2000/svg">
<path d="M12.7791 25.6976C19.6826 25.6976 25.2791 20.1012 25.2791 13.1976C25.2791 6.29407 19.6826 0.697632 12.7791 0.697632C5.87549 0.697632 0.279053 6.29407 0.279053 13.1976C0.279053 20.1012 5.87549 25.6976 12.7791 25.6976Z" fill="#59AF99"/>
<path d="M14.0765 11.6588V10.1825H17.4352V7.85376H8.11397V10.1825H11.4815V11.6588C8.66022 11.795 6.54272 12.3613 6.54272 13.0338C6.54272 13.7063 8.65772 14.275 11.4815 14.4088V19.2838H14.0765V14.4088C16.8977 14.2738 19.0152 13.7075 19.0152 13.0338C19.0152 12.36 16.904 11.795 14.0765 11.6588ZM12.779 13.9788C9.72397 13.9788 7.24772 13.5063 7.24772 12.9375C7.24772 12.4488 9.05147 12.0375 11.479 11.9275V13.595C11.8965 13.6138 12.3302 13.625 12.7765 13.625C13.2227 13.625 13.659 13.6138 14.074 13.595V11.9275C16.5015 12.0375 18.3052 12.4488 18.3052 12.9375C18.3102 13.5125 15.834 13.9788 12.779 13.9788Z" fill="white"/>
</svg>
